# xmcd
#
# Track frame offsets:
#	150
#	12885
#	27280
#	45434
#	65011
#	79647
#	95401
#	110272
#	126287
#	142847
#	156227
#	172939
#	188137
#	204718
#	220206
#	235414
#	251774
#	267105
#	281696
#	297170
#	311633
#
# Disc length: 4364 seconds
#
# Revision: 0
# Processed by: cddbd v1.5.1PL0 Copyright (c) Steve Scherf et al.
# Submitted via: audiograbber 1.83.01
#
DISCID=2b110a15
DTITLE=Bellamy Brothers - Best Of The Best 
DYEAR=2000
DGENRE=Dance
TTITLE0=Let Your Love Flow
TTITLE1=If I Said You Had A Beautiful Body (Would You Hold It Against Me)
TTITLE2=Old Hippie
TTITLE3=You Ain't Just Whistlin' Dixie
TTITLE4=Dancin' Cowboys
TTITLE5=Sugar Daddy
TTITLE6=Lovers Live Longer
TTITLE7=Crazy From The Heart
TTITLE8=Feelin' The Feelin'
TTITLE9=Do You Love As Good As You Look
TTITLE10=For All The Wrong Reasons
TTITLE11=Redneck Girl
TTITLE12=When I'm Away From You
TTITLE13=I'd Lie To You For Your Love
TTITLE14=You'll Never Be Sorry
TTITLE15=Sante Fe
TTITLE16=I Need More Of You
TTITLE17=Big Love
TTITLE18=Kids Of The Baby Boom
TTITLE19=Get Into Reggae Couwboy
TTITLE20=Cowboy Beat
EXTD=
EXTT0=
EXTT1=
EXTT2=
EXTT3=
EXTT4=
EXTT5=
EXTT6=
EXTT7=
EXTT8=
EXTT9=
EXTT10=
EXTT11=
EXTT12=
EXTT13=
EXTT14=
EXTT15=
EXTT16=
EXTT17=
EXTT18=
EXTT19=
EXTT20=
PLAYORDER=
